<svg xmlns="http://www.w3.org/2000/svg" viewBox="0 0 29 29"><defs><style>.cls-1{fill:#1d1d1b;}.cls-2{fill:none;stroke:#1d1d1b;stroke-linecap:round;stroke-miterlimit:10;stroke-width:2px;}</style></defs><title>Ресурс 3</title><g id="Слой_2" data-name="Слой 2"><g id="Слой_1-2" data-name="Слой 1"><path class="cls-1" d="M14.5,2A12.46,12.46,0,0,1,22,4.5,12.46,12.46,0,0,1,14.5,7,12.46,12.46,0,0,1,7,4.5,12.46,12.46,0,0,1,14.5,2m0-2A14.39,14.39,0,0,0,5.79,2.9a2,2,0,0,0,0,3.2A14.39,14.39,0,0,0,14.5,9a14.39,14.39,0,0,0,8.71-2.9,2,2,0,0,0,0-3.2A14.39,14.39,0,0,0,14.5,0Z"/><path class="cls-1" d="M14.5,22A12.46,12.46,0,0,1,22,24.5a12.53,12.53,0,0,1-15,0A12.46,12.46,0,0,1,14.5,22m0-2a14.39,14.39,0,0,0-8.71,2.9,2,2,0,0,0,0,3.2,14.53,14.53,0,0,0,17.42,0,2,2,0,0,0,0-3.2A14.39,14.39,0,0,0,14.5,20Z"/><path class="cls-1" d="M14.5,2c2.76,0,5,5.6,5,12.5S17.26,27,14.5,27s-5-5.6-5-12.5S11.74,2,14.5,2m0-2c-4.6,0-7,7.29-7,14.5S9.9,29,14.5,29s7-7.29,7-14.5S19.1,0,14.5,0Z"/><line class="cls-2" x1="2" y1="14.5" x2="27" y2="14.5"/><line class="cls-2" x1="14.5" y1="2" x2="14.5" y2="27"/><path class="cls-1" d="M14.5,2A12.49,12.49,0,1,1,7,4.5,12.46,12.46,0,0,1,14.5,2m0-2A14.49,14.49,0,0,0,0,14.5,14.51,14.51,0,1,0,14.5,0Z"/></g></g></svg>