<svg xmlns="http://www.w3.org/2000/svg" viewBox="0 0 29 29"><defs><style>.cls-1{fill:#1d1d1b;}.cls-2{fill:none;stroke:#1d1d1b;stroke-linecap:round;stroke-miterlimit:10;stroke-width:2px;}</style></defs><title>Ресурс 4</title><g id="Слой_2" data-name="Слой 2"><g id="Слой_1-2" data-name="Слой 1"><path class="cls-1" d="M21,2a6,6,0,0,1,6,6V21a6,6,0,0,1-6,6H8a6,6,0,0,1-6-6V8A6,6,0,0,1,8,2H21m0-2H8A8,8,0,0,0,0,8V21a8,8,0,0,0,8,8H21a8,8,0,0,0,8-8V8a8,8,0,0,0-8-8Z"/><line class="cls-2" x1="8.5" y1="20.5" x2="20.5" y2="20.5"/><line class="cls-2" x1="8.5" y1="14.5" x2="20.5" y2="14.5"/><line class="cls-2" x1="8.5" y1="8.5" x2="20.5" y2="8.5"/></g></g></svg>