<svg xmlns="http://www.w3.org/2000/svg" xmlns:xlink="http://www.w3.org/1999/xlink" viewBox="0 0 338.25 322.65">
    <defs>
        <linearGradient id="Безымянный_градиент_40" x1="157.61" y1="214.9" x2="287.11" y2="85.4" gradientUnits="userSpaceOnUse">
            <stop offset="0" stop-color="#7A69FF"/>
            <stop offset="1" stop-color="#78FFD6"/>
        </linearGradient>
        <style>
            .cls-1 {
                fill: url(#Безымянный_градиент_40);
            }
            .cls-2 {
                fill: url(#Безымянный_градиент_40);
            }
        </style>
    </defs>
    <title>OriOne</title>
    <g id="Слой_2" data-name="Слой 2">
        <g id="Слой_1-2" data-name="Слой 1">
            <path class="cls-1" d="M161.55,221c-24.39,13.2-55.8,12.84-95.35,24.84C31.73,256.24,9.57,288.71.1,320a2,2,0,0,0,3.59,1.68c12.25-19.08,34.93-45.17,68.37-51.27,43.77-8,79.36,1.2,118-20.18,30.45-16.83,82.5-67.12,35.27-129-18.33-24-57.21,3.2-39.26,27.48C207.09,177.19,191.29,204.87,161.55,221Z"/>
            <path class="cls-2" d="M176.7,101.69c24.39-13.19,55.79-12.84,95.35-24.83,34.47-10.46,56.62-42.93,66.1-74.25A2,2,0,0,0,334.56.93C322.31,20,299.63,46.09,266.18,52.2c-43.76,8-79.35-1.2-118,20.17-30.45,16.84-82.5,67.12-35.27,129,18.32,24,57.21-3.2,39.26-27.48C131.16,145.45,147,117.78,176.7,101.69Z"/>
        </g>
    </g>
</svg>